<?xml version="1.0" standalone="no"?>
<!DOCTYPE svg PUBLIC "-//W3C//DTD SVG 20010904//EN"
 "http://www.w3.org/TR/2001/REC-SVG-20010904/DTD/svg10.dtd">
<svg version="1.0" xmlns="http://www.w3.org/2000/svg"
 width="40.000000pt" height="40.000000pt" viewBox="0 0 40.000000 40.000000"
 preserveAspectRatio="xMidYMid meet">
<metadata>
Created by potrace 1.16, written by Peter Selinger 2001-2019
</metadata>
<g transform="translate(0.000000,42.000000) scale(0.003813,-0.003813)"
fill="#000000" stroke="none">
<path d="M923 4409 c-39 -14 -43 -38 -43 -283 l0 -236 -80 0 c-79 0 -81 -1
-91 -27 -15 -39 -7 -152 12 -164 22 -14 442 -12 457 3 16 16 16 160 0 176 -7
7 -42 12 -85 12 l-73 0 0 229 c0 126 -4 241 -9 254 -11 29 -57 48 -88 36z"/>
<path d="M716 3528 c-22 -32 -24 -524 -2 -554 13 -18 30 -19 218 -22 124 -2
214 1 231 7 l27 11 0 278 c0 203 -3 281 -12 290 -9 9 -74 12 -229 12 -214 0
-218 0 -233 -22z"/>
<path d="M2077 3257 c-16 -11 -17 -35 -15 -252 l3 -240 250 0 250 0 3 240 c2
217 1 241 -15 252 -12 10 -77 13 -238 13 -161 0 -226 -3 -238 -13z"/>
<path d="M2777 3257 c-16 -11 -17 -35 -15 -252 l3 -240 250 0 250 0 3 240 c2
217 1 241 -15 252 -12 10 -77 13 -238 13 -161 0 -226 -3 -238 -13z"/>
<path d="M324 2813 c-12 -2 -30 -13 -40 -25 -18 -19 -19 -42 -19 -328 0 -289
1 -309 19 -329 19 -21 21 -21 663 -21 630 0 643 0 663 20 19 19 20 33 20 326
0 180 -4 313 -10 324 -20 38 -53 40 -674 39 -331 -1 -611 -4 -622 -6z"/>
<path d="M2072 2598 c-19 -19 -17 -471 2 -487 9 -8 85 -11 252 -9 l239 3 3
239 c2 167 -1 243 -9 252 -16 19 -468 21 -487 2z"/>
<path d="M2772 2598 c-19 -19 -17 -471 2 -487 9 -8 85 -11 252 -9 l239 3 0
250 0 250 -240 3 c-179 2 -244 -1 -253 -10z"/>
<path d="M3470 2591 c-15 -30 -14 -452 3 -474 11 -16 35 -17 252 -15 l240 3 0
250 0 250 -242 3 c-231 2 -243 1 -253 -17z"/>
<path d="M4189 2038 c-28 -34 -56 -70 -62 -80 -11 -17 -85 -18 -2069 -18
l-2058 0 0 -24 c0 -33 468 -1188 488 -1203 12 -10 407 -13 1898 -13 1778 0
1883 1 1902 18 12 9 202 310 424 667 291 470 402 658 403 680 l0 30 -437 3
-437 2 -52 -62z m-709 -433 c36 -19 50 -43 50 -88 0 -84 -104 -120 -162 -56
-45 48 -33 114 27 147 28 16 51 15 85 -3z m517 -7 c23 -19 41 -66 35 -94 -6
-30 -46 -70 -76 -76 -28 -6 -75 12 -94 35 -7 8 -16 31 -19 51 -5 31 -1 40 31
72 32 32 41 36 72 31 20 -3 43 -12 51 -19z"/>
</g>
</svg>
